HIERARCHY
ROOT Hips
{
	OFFSET	0.00	0.00	0.00
	CHANNELS 6 Xposition Yposition Zposition Zrotation Xrotation Yrotation
	JOINT LeftUpLeg
	{
		OFFSET	 3.91	 0.00	 0.00
		CHANNELS 3 Zrotation Xrotation Yrotation
		JOINT LeftLowLeg
		{
			OFFSET	 0.00	-18.34	 0.00
			CHANNELS 3 Zrotation Xrotation Yrotation
			JOINT LeftFoot
			{
				OFFSET	 0.00	-17.37	 0.00
				CHANNELS 3 Zrotation Xrotation Yrotation
				End Site
				{
					OFFSET	 0.00	-3.46	 0.00
				}
			}
		}
	}
	JOINT RightUpLeg
	{
		OFFSET	-3.91	 0.00	 0.00
		CHANNELS 3 Zrotation Xrotation Yrotation
		JOINT RightLowLeg
		{
			OFFSET	 0.00	-17.63	 0.00
			CHANNELS 3 Zrotation Xrotation Yrotation
			JOINT RightFoot
			{
				OFFSET	 0.00	-17.14	 0.00
				CHANNELS 3 Zrotation Xrotation Yrotation
				End Site
				{
					OFFSET	 0.00	-3.75	 0.00
				}
			}
		}
	}
}
MOTION
Frames:    2
Frame Time: 0.033333
 0.00	 0.00	 0.00	-3.41	 14.78	-164.35	 15.00	 22.78	-5.92	 14.93	 49.99	 6.60	 0.00	-1.14	 0.00	-16.58	-10.51	-3.11	 15.38	 52.66	-21.80	 0.00	-23.95	 0.00
 0.00	 0.00	 0.00	-3.78	 12.94	-166.97	 13.16	 15.44	-3.56	 7.97	 59.29	 4.97	 0.00	 1.64	 0.00	-17.18	-10.02	-3.08	 13.56	 53.38	-18.07	 0.00	-25.93	 0.00
